<!--?xml version="1.0" encoding="utf-8"?-->
<!-- Svg Vector Icons : http://www.onlinewebfonts.com/icon -->

<svg version="1.1" xmlns="http://www.w3.org/2000/svg" xmlns:xlink="http://www.w3.org/1999/xlink" x="0px" y="0px" viewBox="0 0 256 256" enable-background="new 0 0 256 256" xml:space="preserve">
<metadata> Svg Vector Icons : http://www.onlinewebfonts.com/icon </metadata>
<g><g><path fill="#f9f9ff" data-title="Layer 0" xs="0" d="M163.2,144.6c6,4.8,11.1,10.8,14.8,17.6c4.4,8,6.8,17.2,6.8,26.9c0,15.7-6.4,29.9-16.6,40.2C157.9,239.6,143.7,246,128,246c-15.7,0-29.9-6.4-40.2-16.6c-10.3-10.3-16.6-24.5-16.6-40.2c0-9.7,2.5-18.9,6.8-26.9c3.7-6.8,8.7-12.8,14.8-17.6V45.3c0-9.7,4-18.5,10.3-24.9v0l0.1-0.1C109.6,13.9,118.4,10,128,10c9.7,0,18.5,4,24.9,10.3v0l0.2,0.1c6.3,6.4,10.2,15.1,10.2,24.8V144.6L163.2,144.6z M133.4,175.7V59.5c0-3-2.4-5.4-5.4-5.4c-3,0-5.4,2.5-5.4,5.4v116.2c-1.8,0.7-3.4,1.8-4.8,3.2v0c-2.6,2.6-4.3,6.3-4.3,10.3c0,4,1.6,7.6,4.3,10.3v0c2.6,2.6,6.3,4.2,10.3,4.2c4,0,7.6-1.7,10.3-4.2l0,0c2.6-2.6,4.2-6.3,4.2-10.3c0-4-1.6-7.6-4.2-10.3l0,0C136.9,177.5,135.2,176.4,133.4,175.7L133.4,175.7L133.4,175.7z M130.5,186.6c-0.6-0.6-1.6-1.1-2.6-1.1c-1,0-1.9,0.4-2.6,1.1c-0.7,0.6-1.1,1.6-1.1,2.6s0.4,1.9,1.1,2.6c0.6,0.7,1.6,1.1,2.6,1.1c1,0,1.9-0.4,2.6-1.1c0.6-0.6,1.1-1.6,1.1-2.6C131.6,188.1,131.2,187.2,130.5,186.6L130.5,186.6z M162,170.8c-3-5.5-7.3-10.3-12.6-13.8c-2.6-1.6-4.4-4.5-4.4-7.8V45.3c0-4.7-1.9-9-5-12.1v0c-3.1-3.1-7.4-5-12.1-5c-4.7,0-9,1.9-12.1,5l0,0c-3.1,3.1-5,7.4-5,12.1v103.9c0,2.9-1.4,5.9-4.1,7.6c-5.3,3.5-9.8,8.3-12.8,14c-2.9,5.4-4.6,11.7-4.6,18.4c0,10.7,4.4,20.4,11.3,27.4c7,7,16.7,11.3,27.4,11.3c10.7,0,20.3-4.3,27.4-11.3c7-7,11.3-16.7,11.3-27.4C166.6,182.5,165,176.2,162,170.8L162,170.8L162,170.8z"/></g></g>
</svg>