<?xml version="1.0" encoding="utf-8"?>
<!-- Svg Vector Icons : http://www.onlinewebfonts.com/icon -->
<!DOCTYPE svg PUBLIC "-//W3C//DTD SVG 1.1//EN" "http://www.w3.org/Graphics/SVG/1.1/DTD/svg11.dtd">
<svg version="1.1" xmlns="http://www.w3.org/2000/svg" xmlns:xlink="http://www.w3.org/1999/xlink" x="0px" y="0px" viewBox="0 0 256 256" enable-background="new 0 0 256 256" xml:space="preserve">
<metadata> Svg Vector Icons : http://www.onlinewebfonts.com/icon </metadata>
<g><g><path fill="#000000" d="M128,10C62.6,10,10,62.6,10,128c0,65.4,52.6,118,118,118c65.4,0,118-52.6,118-118C246,62.6,193.4,10,128,10L128,10z M128,236.2c-59.5,0-108.2-48.7-108.2-108.2C19.8,68.5,68.5,19.8,128,19.8c59.5,0,108.2,48.7,108.2,108.2C236.2,187.5,187.5,236.2,128,236.2L128,236.2z"/><path fill="#000000" d="M189.5,156c-2.5-1-5.4-0.5-6.4,2c-10.8,21.1-32,33.9-55.1,33.9c-23.6,0-44.2-12.8-55.1-33.9c-1-2.5-3.9-3.4-6.4-2c-2.5,1-3.4,3.9-2.5,6.4c12.3,24.1,36.4,39.3,63.9,39.3c27,0,51.6-15.2,63.4-39.3C192.9,160,191.9,157,189.5,156L189.5,156z"/><path fill="#000000" d="M103.4,103.4c0,8.1-6.6,14.8-14.8,14.8c-8.2,0-14.7-6.6-14.7-14.8c0-8.2,6.6-14.8,14.7-14.8S103.4,95.3,103.4,103.4z"/><path fill="#000000" d="M182.1,103.4c0,8.1-6.6,14.8-14.8,14.8c-8.1,0-14.8-6.6-14.8-14.8c0-8.2,6.6-14.8,14.8-14.8C175.5,88.7,182.1,95.3,182.1,103.4z"/></g></g>
</svg>